# xmcd
#
# Track frame offsets:
#   150
#   17019
#   32942
#   51977
#   72147
#   88125
#   105232
#   123943
#   145798
#   165455
#   184041
#   198855
#   220727
#   238082
#   252178
#   267240
#   285523
#   305202
#
# Disc length: 4299 seconds
#
# Revision: 0
# Processed by: cddbd v1.5.2PL0 Copyright (c) Steve Scherf et al.
# Submitted via: uFREEDB ActiveX Control 1.5
#
DISCID=fd10c912
DTITLE=VARIOS - PEROLAS NATIVA 5
DYEAR=1900
DGENRE=Country
TTITLE0=Nessas Aguas Desse Rio
TTITLE1=Sonhos Extraviados
TTITLE2=Exemplo de Pai
TTITLE3=Auroras de Vida
TTITLE4=Sonho de Barro
TTITLE5=Coração de Passarinho
TTITLE6=A Lição das Garças Brancas
TTITLE7=Coração Missioneiro
TTITLE8=Prosa
TTITLE9=Canção para Meu Filho
TTITLE10=Não te Mixa Bugio!
TTITLE11=Fronteiras de Prata
TTITLE12=Nessas Águas do Ibicuí
TTITLE13=Piazito Campeiro
TTITLE14=Vila Belga
TTITLE15=Meu Guri
TTITLE16=Flor do Sul
TTITLE17=Essas Raízes
EXTD=
EXTT0=
EXTT1=
EXTT2=
EXTT3=
EXTT4=
EXTT5=
EXTT6=
EXTT7=
EXTT8=
EXTT9=
EXTT10=
EXTT11=
EXTT12=
EXTT13=
EXTT14=
EXTT15=
EXTT16=
EXTT17=
PLAYORDER=
